<svg width="21" height="20" viewBox="0 0 21 20" fill="none" xmlns="http://www.w3.org/2000/svg">
<path d="M16.2098 0.790648C15.6108 0.589648 14.9808 0.500648 14.3498 0.500648C12.9598 0.490648 11.6108 0.950648 10.4998 1.79965C10.4098 1.73065 10.2998 1.66965 10.1998 1.61065C10.0998 1.54965 9.91977 1.40065 9.76977 1.32065L9.38977 1.15065C9.18977 1.04065 8.98077 0.960648 8.75977 0.889648C8.73977 0.870648 8.70977 0.849648 8.66977 0.830648H8.61077C8.01977 0.629648 7.40977 0.519648 6.77977 0.500648H6.66977C6.38977 0.500648 6.11077 0.519648 5.82977 0.560648H5.70977C5.40977 0.599648 5.11077 0.669648 4.82077 0.769648C1.08977 1.99065 -0.240228 6.04065 0.889772 9.58065C1.52977 11.3896 2.56077 13.0306 3.90077 14.3796C5.84977 16.2596 7.98077 17.9196 10.2698 19.3396L10.5298 19.5006L10.7798 19.3496C13.0608 17.9196 15.1798 16.2596 17.1108 14.3896C18.4598 13.0406 19.4898 11.3896 20.1198 9.58065C21.2308 6.04065 19.9008 1.99065 16.2098 0.790648Z" fill="#FF8686"/>
</svg>
