<svg width="25" height="24" viewBox="0 0 25 24" fill="none" xmlns="http://www.w3.org/2000/svg">
<path d="M21.8991 9.82023L21.8711 9.35H21.5886L22.1652 8.29132L22.9913 19.6562L22.9915 19.6586C23.0688 20.6553 22.2815 21.5 21.28 21.5H15.0054C15.2459 21.2067 15.4273 20.8596 15.5294 20.4735L19.5376 13.1152L18.06 20.4006L17.9384 21H18.55H21.28C21.7463 21 22.0422 20.7614 22.1837 20.6022L22.1863 20.5993C22.2972 20.4725 22.5214 20.1658 22.4889 19.7072L21.8991 9.82023Z" fill="#FF8686" stroke="#FF8686"/>
<path d="M11.4649 2.11863L11.4644 2.12064L11.1379 3.4499H10.6251L10.9754 1.99978C11.0069 1.87722 11.1402 1.78721 11.2843 1.81644C11.4171 1.85292 11.4965 1.99235 11.4649 2.11863Z" fill="#FF8686" stroke="#FF8686"/>
<path d="M18.0616 2.10285L18.0613 2.10453L17.7664 3.47005H17.2504L17.5684 2.00726C17.5684 2.00713 17.5684 2.007 17.5685 2.00687C17.6013 1.8581 17.7404 1.78089 17.8602 1.80786L17.8628 1.80843C18.0137 1.84155 18.0901 1.97305 18.0616 2.10285ZM18.55 2.21005C18.64 1.80005 18.38 1.41005 17.97 1.32005L18.55 2.21005Z" fill="#FF8686" stroke="#FF8686"/>
<path d="M21.8578 5.52061L21.8629 5.5329L21.8686 5.54491C21.9342 5.68279 21.9748 5.85853 21.9917 6.06147C22.007 6.24491 21.9922 6.44085 21.9442 6.6414C21.9441 6.64202 21.944 6.64264 21.9438 6.64326L18.5748 20.1691L18.5748 20.1691L18.5735 20.1743C18.388 20.9551 17.6925 21.4999 16.88 21.4999H3.74C2.57602 21.4999 1.73374 20.3546 2.078 19.2166C2.07815 19.2161 2.0783 19.2156 2.07846 19.2151L6.28748 5.6683L6.28778 5.66734C6.51304 4.93719 7.18912 4.43994 7.95 4.43994H9.3458L8.95424 6.07146C8.95416 6.0718 8.95408 6.07213 8.95399 6.07246C8.78838 6.75381 9.20677 7.41952 9.86873 7.58501L9.8881 7.58986L9.9078 7.59314C9.91069 7.59362 9.91372 7.59413 9.9169 7.59466C9.97157 7.60384 10.0675 7.61994 10.17 7.61994C10.7293 7.61994 11.2497 7.24273 11.3863 6.66629C11.3864 6.66568 11.3866 6.66507 11.3867 6.66446L11.9233 4.44994H16.0111L15.6512 6.12488L15.6511 6.12487L15.6497 6.13188C15.5183 6.78901 15.9335 7.43836 16.5802 7.60059C16.7099 7.64187 16.8343 7.64044 16.8725 7.64001C16.8756 7.63997 16.8781 7.63994 16.88 7.63994C17.4537 7.63994 17.9656 7.23827 18.0974 6.66135L18.0975 6.66136L18.0987 6.65561L18.5734 4.45994H20.25C21.0012 4.45994 21.6026 4.90193 21.8578 5.52061ZM7.2 17.2499H15.2C15.8861 17.2499 16.45 16.6861 16.45 15.9999C16.45 15.3138 15.8861 14.7499 15.2 14.7499H7.2C6.51386 14.7499 5.95 15.3138 5.95 15.9999C5.95 16.6861 6.51386 17.2499 7.2 17.2499ZM8.2 13.2499H16.2C16.8861 13.2499 17.45 12.6861 17.45 11.9999C17.45 11.3138 16.8861 10.7499 16.2 10.7499H8.2C7.51386 10.7499 6.95 11.3138 6.95 11.9999C6.95 12.6861 7.51386 13.2499 8.2 13.2499Z" fill="#FF8686" stroke="#FF8686"/>
</svg>
