<svg width="20" height="22" viewBox="0 0 20 22" fill="none" xmlns="http://www.w3.org/2000/svg">
<path fill-rule="evenodd" clip-rule="evenodd" d="M18.3067 6.62337L17.6842 5.54328C17.1577 4.62936 15.9907 4.31408 15.0755 4.83847V4.83847C14.6399 5.0951 14.1201 5.16791 13.6307 5.04084C13.1413 4.91378 12.7226 4.59727 12.4668 4.16113C12.3023 3.8839 12.2139 3.56815 12.2105 3.2458V3.2458C12.2254 2.72898 12.0304 2.22816 11.67 1.85743C11.3096 1.48669 10.8145 1.27762 10.2975 1.27783H9.0435C8.53697 1.27783 8.05131 1.47967 7.694 1.8387C7.33669 2.19773 7.13717 2.68435 7.13961 3.19088V3.19088C7.1246 4.23668 6.27248 5.07657 5.22657 5.07646C4.90421 5.07311 4.58846 4.9847 4.31123 4.82017V4.82017C3.39606 4.29577 2.22911 4.61105 1.70254 5.52497L1.03435 6.62337C0.50841 7.53615 0.8194 8.70236 1.73 9.23207V9.23207C2.3219 9.5738 2.68653 10.2053 2.68653 10.8888C2.68653 11.5723 2.3219 12.2038 1.73 12.5456V12.5456C0.820556 13.0717 0.509227 14.2351 1.03435 15.1451V15.1451L1.66593 16.2344C1.91265 16.6795 2.3266 17.0081 2.81619 17.1472C3.30578 17.2863 3.83064 17.2247 4.27462 16.9758V16.9758C4.71108 16.7211 5.23119 16.6513 5.71934 16.782C6.20749 16.9126 6.62324 17.2328 6.87416 17.6714C7.0387 17.9486 7.12711 18.2644 7.13046 18.5868V18.5868C7.13046 19.6433 7.98696 20.4998 9.0435 20.4998H10.2975C11.3505 20.4998 12.2055 19.6489 12.2105 18.5959V18.5959C12.2081 18.0878 12.4089 17.5998 12.7682 17.2405C13.1275 16.8812 13.6155 16.6804 14.1236 16.6829C14.4452 16.6915 14.7596 16.7795 15.0389 16.9392V16.9392C15.9517 17.4651 17.1179 17.1541 17.6476 16.2435V16.2435L18.3067 15.1451C18.5618 14.7073 18.6318 14.1858 18.5012 13.6961C18.3706 13.2065 18.0502 12.7891 17.611 12.5364V12.5364C17.1718 12.2837 16.8514 11.8663 16.7208 11.3767C16.5902 10.8871 16.6603 10.3656 16.9154 9.92772C17.0812 9.63809 17.3214 9.39795 17.611 9.23207V9.23207C18.5161 8.70265 18.8264 7.54325 18.3067 6.63252V6.63252V6.62337Z" stroke="#8492A6" stroke-width="1.5" stroke-linecap="round" stroke-linejoin="round"/>
<circle cx="9.67546" cy="10.8886" r="2.63616" stroke="#8492A6" stroke-width="1.5" stroke-linecap="round" stroke-linejoin="round"/>
</svg>
