<svg width="19" height="20" viewBox="0 0 19 20" fill="none" xmlns="http://www.w3.org/2000/svg">
<path fill-rule="evenodd" clip-rule="evenodd" d="M17.9022 11.58C18.2599 11.77 18.5358 12.07 18.73 12.37C19.1081 12.99 19.0775 13.75 18.7096 14.42L17.9942 15.62C17.6161 16.26 16.9109 16.66 16.1853 16.66C15.8277 16.66 15.4291 16.56 15.1021 16.36C14.8364 16.19 14.5298 16.13 14.2027 16.13C13.191 16.13 12.3428 16.96 12.3121 17.95C12.3121 19.1 11.3719 20 10.1967 20H8.8068C7.62133 20 6.68113 19.1 6.68113 17.95C6.66069 16.96 5.81247 16.13 4.80073 16.13C4.46348 16.13 4.1569 16.19 3.90141 16.36C3.57438 16.56 3.1656 16.66 2.81813 16.66C2.08232 16.66 1.37717 16.26 0.999048 15.62L0.293898 14.42C-0.0842265 13.77 -0.104666 12.99 0.273459 12.37C0.436972 12.07 0.743559 11.77 1.09102 11.58C1.37717 11.44 1.56112 11.21 1.73486 10.94C2.24584 10.08 1.93925 8.95 1.07059 8.44C0.0588476 7.87 -0.268179 6.6 0.314337 5.61L0.999048 4.43C1.59178 3.44 2.85901 3.09 3.88097 3.67C4.77007 4.15 5.92488 3.83 6.44608 2.98C6.60959 2.7 6.70157 2.4 6.68113 2.1C6.66069 1.71 6.77311 1.34 6.96728 1.04C7.3454 0.42 8.03012 0.02 8.77614 0H10.2171C10.9734 0 11.6581 0.42 12.0362 1.04C12.2201 1.34 12.3428 1.71 12.3121 2.1C12.2917 2.4 12.3837 2.7 12.5472 2.98C13.0684 3.83 14.2232 4.15 15.1225 3.67C16.1342 3.09 17.4117 3.44 17.9942 4.43L18.6789 5.61C19.2716 6.6 18.9446 7.87 17.9227 8.44C17.054 8.95 16.7474 10.08 17.2686 10.94C17.4321 11.21 17.6161 11.44 17.9022 11.58ZM6.60925 10.01C6.60925 11.58 7.90714 12.83 9.51161 12.83C11.1161 12.83 12.3833 11.58 12.3833 10.01C12.3833 8.43999 11.1161 7.17999 9.51161 7.17999C7.90714 7.17999 6.60925 8.43999 6.60925 10.01Z" fill="#FF8686"/>
</svg>
