<svg width="21" height="21" viewBox="0 0 21 21" fill="none" xmlns="http://www.w3.org/2000/svg">
<g clip-path="url(#clip0_16_2729)">
<path d="M4.70926 5.59225C4.82974 5.70883 4.94528 5.81629 5.0549 5.9278C5.65928 6.54619 6.26365 7.16357 6.86407 7.785C7.06355 7.99181 7.28773 8.14996 7.57707 8.16719C7.70842 8.1753 7.84964 8.16009 7.97505 8.11954C8.73249 7.87523 8.96457 6.93345 8.40562 6.34952C7.72422 5.63786 7.03097 4.93938 6.34068 4.23685C6.29229 4.18718 6.23106 4.14967 6.13626 4.07465C6.25377 3.97327 6.34364 3.90535 6.42165 3.82628C7.07047 3.16429 7.71632 2.49927 8.36414 1.83728C8.53696 1.65988 8.65843 1.4551 8.70484 1.20774C8.77397 0.832651 8.55276 0.379501 8.19922 0.162557C7.80125 -0.0807457 7.37858 -0.0574293 7.02208 0.247712C6.82062 0.420051 6.63398 0.610637 6.44832 0.80021C5.89826 1.36082 5.35116 1.92447 4.80308 2.4871C4.78037 2.51042 4.75469 2.53069 4.7221 2.56009C4.67174 2.51143 4.62434 2.46683 4.57891 2.4202C3.9459 1.77139 3.31782 1.11853 2.6779 0.477836C2.52483 0.324758 2.34707 0.182831 2.15648 0.0875378C1.77627 -0.102035 1.33781 0.0155611 1.02673 0.352129C0.733435 0.669435 0.653444 1.12968 0.849964 1.5068C0.930942 1.66292 1.04451 1.8089 1.16696 1.93562C1.84046 2.63714 2.52187 3.33055 3.2003 4.027C3.21216 4.03917 3.22203 4.05133 3.24277 4.07465C3.21709 4.10608 3.19438 4.13852 3.16673 4.1669C2.53964 4.80962 1.91058 5.4493 1.28744 6.09507C1.13833 6.24916 0.987232 6.41136 0.880578 6.59688C0.61098 7.06422 0.74726 7.61571 1.18968 7.96038C1.60346 8.28175 2.1071 8.24931 2.48434 7.86712C3.21611 7.12403 3.94293 6.37588 4.67174 5.62975C4.68359 5.61759 4.69544 5.60644 4.70926 5.59326V5.59225Z" fill="white"/>
<path d="M5.77221 15.0596C5.77221 14.8984 5.77221 14.7565 5.77221 14.6136C5.77221 13.8857 5.77616 13.1578 5.77023 12.4289C5.76727 12.0194 5.64284 11.6605 5.27054 11.4527C4.60494 11.0816 3.69344 11.4223 3.6806 12.363C3.66875 13.2217 3.67369 14.0793 3.67073 14.938C3.67073 14.9714 3.67073 15.0039 3.67073 15.0525C3.62333 15.0556 3.57987 15.0596 3.53741 15.0596C2.75824 15.0596 1.97809 15.0596 1.19892 15.0607C0.967836 15.0607 0.742677 15.085 0.531344 15.1995C0.139292 15.4124 -0.071054 15.8889 0.0217745 16.3725C0.113616 16.8509 0.438516 17.1642 0.898708 17.2068C1.06165 17.222 1.22657 17.224 1.3905 17.225C2.10844 17.2281 2.82638 17.2301 3.54432 17.225C3.65295 17.225 3.67172 17.2625 3.67172 17.3619C3.67172 18.2033 3.67172 19.0447 3.68258 19.8872C3.68455 20.0524 3.71418 20.2257 3.77146 20.3788C3.93736 20.8218 4.362 21.0489 4.87256 20.9911C5.32584 20.9404 5.67247 20.6029 5.74555 20.1335C5.76233 20.026 5.77023 19.9166 5.77122 19.8071C5.7732 19.0032 5.77221 18.1992 5.77221 17.3953C5.77221 17.3457 5.77221 17.295 5.77221 17.222C5.83837 17.222 5.89763 17.222 5.95688 17.222C6.78147 17.223 7.60607 17.2301 8.43066 17.225C8.90962 17.222 9.26908 16.9351 9.39549 16.4779C9.53078 15.9893 9.36389 15.4864 8.97973 15.2289C8.76346 15.084 8.51855 15.0617 8.27068 15.0607C7.48658 15.0576 6.70346 15.0596 5.91935 15.0596C5.87491 15.0596 5.83047 15.0596 5.77122 15.0596H5.77221Z" fill="white"/>
<path d="M16.2739 15.0597C15.1293 15.0597 13.9847 15.0587 12.8402 15.0607C12.6812 15.0607 12.5192 15.0658 12.3622 15.0942C11.8922 15.1793 11.6008 15.5321 11.5594 16.0431C11.5041 16.7304 11.9455 17.2261 12.616 17.2261C15.0572 17.2271 17.4974 17.2261 19.9386 17.2261C20.4304 17.2261 20.7711 16.9929 20.9232 16.5611C21.0822 16.1079 20.9647 15.6031 20.6338 15.3152C20.4008 15.1124 20.1223 15.0597 19.83 15.0597C19.1822 15.0587 18.5333 15.0597 17.8855 15.0597C17.3483 15.0597 16.8111 15.0597 16.2729 15.0597H16.2739Z" fill="white"/>
<path d="M16.2841 2.67822C17.5106 2.67822 18.7371 2.68025 19.9636 2.67822C20.4367 2.67822 20.7754 2.43898 20.9255 2.01624C21.0865 1.56309 20.9699 1.05925 20.6391 0.769317C20.4426 0.597992 20.2095 0.532098 19.9587 0.515877C19.8975 0.511822 19.8352 0.511822 19.774 0.511822C17.4642 0.511822 15.1543 0.511822 12.8455 0.512836C12.6825 0.512836 12.5156 0.517905 12.3556 0.549332C11.8164 0.654763 11.4866 1.16367 11.5666 1.74455C11.6486 2.33152 12.0357 2.67822 12.6163 2.67924C13.8389 2.68025 15.0615 2.67924 16.2841 2.67924V2.67822Z" fill="white"/>
<path d="M16.2995 4.8409C15.0611 4.8409 13.8227 4.84293 12.5833 4.8409C11.9405 4.83989 11.4783 5.38934 11.5652 6.05944C11.6373 6.61092 12.0076 6.97182 12.5488 6.97689C13.8731 6.98905 15.1983 6.98804 16.5226 6.99108C17.5684 6.99311 18.6142 6.9921 19.66 6.99007C19.8319 6.99007 20.0057 6.98804 20.1736 6.95661C20.6189 6.87349 20.8866 6.58862 20.9735 6.13141C21.09 5.51708 20.7621 4.98891 20.1844 4.8703C20.0689 4.84698 19.9474 4.84698 19.8289 4.84698C18.6518 4.84496 17.4746 4.84698 16.2975 4.84698C16.2975 4.84597 16.2975 4.84496 16.2975 4.84394L16.2995 4.8409Z" fill="white"/>
</g>
<defs>
<clipPath id="clip0_16_2729">
<rect width="21" height="21" fill="white" transform="matrix(1 0 0 -1 0 21)"/>
</clipPath>
</defs>
</svg>
