<svg width="10" height="26" viewBox="0 0 10 26" fill="none" xmlns="http://www.w3.org/2000/svg">
<path d="M3.72676 19.1999V18.7586C3.72676 13.151 3.72588 7.54432 3.72764 1.93674C3.72764 0.921359 4.61153 0.234514 5.54212 0.517014C6.10347 0.686695 6.50796 1.2174 6.54938 1.84377C6.55731 1.96742 6.55291 2.09107 6.55291 2.21562C6.55291 7.72122 6.55291 13.2277 6.55291 18.7333V19.2008C6.70712 19.2008 6.82521 19.2008 6.94418 19.2008C7.6809 19.2008 8.41673 19.2035 9.15345 19.1999C9.49449 19.1981 9.78971 19.2775 9.93952 19.6304C10.0788 19.959 9.97301 20.2361 9.76415 20.5005C9.04594 21.4103 8.3339 22.3264 7.62009 23.2407C7.02261 24.0051 6.42689 24.7714 5.82941 25.535C5.34825 26.1487 4.92349 26.1523 4.44145 25.5359C3.12135 23.8499 1.80742 22.1603 0.486437 20.4752C0.276701 20.2072 0.178002 19.931 0.334863 19.6061C0.484674 19.2947 0.750809 19.1972 1.07158 19.199C1.83033 19.2017 2.5882 19.199 3.34695 19.199C3.46503 19.199 3.58312 19.199 3.72764 19.199L3.72676 19.1999Z" fill="white"/>
</svg>
