<svg width="10" height="26" viewBox="0 0 10 26" fill="none" xmlns="http://www.w3.org/2000/svg">
<path d="M3.45048 6.79546C3.29362 6.79546 3.17465 6.79546 3.05569 6.79546C2.31897 6.79546 1.58313 6.79275 0.846414 6.79636C0.504492 6.79817 0.210157 6.71513 0.0621082 6.36313C-0.0771281 6.0337 0.0330272 5.75842 0.241 5.49397C1.22711 4.24122 2.20617 2.98216 3.18787 1.7258C3.53773 1.27723 3.88317 0.82505 4.2392 0.381895C4.64721 -0.126244 5.10193 -0.128049 5.50025 0.380992C6.8415 2.09224 8.17659 3.8089 9.51784 5.52015C9.72757 5.78821 9.82186 6.06619 9.66588 6.39021C9.51607 6.70159 9.24817 6.79636 8.92828 6.79546C8.16953 6.79275 7.41167 6.79546 6.65292 6.79546C6.53483 6.79546 6.41674 6.79546 6.27575 6.79546V7.24042C6.27575 12.8471 6.27575 18.4547 6.27575 24.0614C6.27575 24.732 5.89064 25.2825 5.30021 25.4721C4.70361 25.6643 4.0277 25.4567 3.7175 24.8971C3.55359 24.6011 3.46194 24.2202 3.46106 23.8781C3.44608 18.3382 3.45048 12.7993 3.45048 7.25937V6.79546Z" fill="white"/>
</svg>
