<svg width="18" height="20" viewBox="0 0 18 20" fill="none" xmlns="http://www.w3.org/2000/svg">
<path fill-rule="evenodd" clip-rule="evenodd" d="M13.4109 0.768617L13.4119 1.51824C16.1665 1.73413 17.9862 3.61119 17.9891 6.48975L18 14.9155C18.0039 18.054 16.0322 19.985 12.8718 19.99L5.15188 20C2.01119 20.004 0.0148166 18.027 0.0108673 14.8795L6.64975e-06 6.55272C-0.00394266 3.65517 1.75153 1.78311 4.50617 1.53024L4.50518 0.780611C4.5042 0.340832 4.83001 0.00999726 5.26444 0.00999726C5.69886 0.00899776 6.02468 0.338833 6.02567 0.778612L6.02666 1.47826L11.8914 1.47027L11.8904 0.770616C11.8894 0.330837 12.2152 0.00100177 12.6497 2.26549e-06C13.0742 -0.000997234 13.4099 0.328838 13.4109 0.768617ZM1.52148 6.86157L16.4696 6.84158V6.49175C16.4272 4.34283 15.349 3.21539 13.4138 3.04748L13.4148 3.81709C13.4148 4.24688 13.0801 4.5877 12.6556 4.5877C12.2212 4.5887 11.8943 4.24887 11.8943 3.81909L11.8934 3.0095L6.02863 3.01749L6.02962 3.82609C6.02962 4.25687 5.70479 4.5967 5.27036 4.5967C4.83594 4.5977 4.50913 4.25887 4.50913 3.82809L4.50815 3.05847C2.58286 3.25137 1.51753 4.38281 1.52049 6.55072L1.52148 6.86157ZM4.99998 16C5.55226 16 5.99998 15.5523 5.99998 15C5.99998 14.4477 5.55226 14 4.99998 14C4.44769 14 3.99998 14.4477 3.99998 15C3.99998 15.5523 4.44769 16 4.99998 16ZM5.99998 11C5.99998 11.5523 5.55226 12 4.99998 12C4.44769 12 3.99998 11.5523 3.99998 11C3.99998 10.4477 4.44769 10 4.99998 10C5.55226 10 5.99998 10.4477 5.99998 11ZM8.99998 16C9.55226 16 9.99998 15.5523 9.99998 15C9.99998 14.4477 9.55226 14 8.99998 14C8.44769 14 7.99998 14.4477 7.99998 15C7.99998 15.5523 8.44769 16 8.99998 16ZM9.99998 11C9.99998 11.5523 9.55226 12 8.99998 12C8.44769 12 7.99998 11.5523 7.99998 11C7.99998 10.4477 8.44769 10 8.99998 10C9.55226 10 9.99998 10.4477 9.99998 11ZM13 16C13.5523 16 14 15.5523 14 15C14 14.4477 13.5523 14 13 14C12.4477 14 12 14.4477 12 15C12 15.5523 12.4477 16 13 16ZM14 11C14 11.5523 13.5523 12 13 12C12.4477 12 12 11.5523 12 11C12 10.4477 12.4477 10 13 10C13.5523 10 14 10.4477 14 11Z" fill="#8492A6"/>
</svg>
