<svg width="18" height="17" viewBox="0 0 18 17" fill="none" xmlns="http://www.w3.org/2000/svg">
  <path fill-rule="evenodd" clip-rule="evenodd" d="M5.28624 14.6266C5.88124 14.6266 6.36541 15.1099 6.36541 15.7049C6.36541 16.2999 5.88124 16.7841 5.28624 16.7841C4.69124 16.7841 4.20791 16.2999 4.20791 15.7049C4.20791 15.1099 4.69124 14.6266 5.28624 14.6266ZM14.6865 14.6266C15.2823 14.6266 15.7665 15.1099 15.7665 15.7049C15.7665 16.2999 15.2823 16.7841 14.6865 16.7841C14.0915 16.7841 13.6082 16.2999 13.6082 15.7049C13.6082 15.1099 14.0915 14.6266 14.6865 14.6266ZM1.72308 0.507906L3.45641 0.807906C3.73558 0.857073 3.94808 1.08874 3.97224 1.37207L4.16808 3.70624L4.89628 3.70655C5.01511 3.70661 5.13268 3.70666 5.24901 3.70671L6.58593 3.70735C6.6925 3.7074 6.79787 3.70745 6.90207 3.70751L8.37823 3.70832C8.47097 3.70837 8.56259 3.70843 8.65312 3.70848L9.68756 3.70914C9.76951 3.7092 9.85042 3.70925 9.93029 3.70931L10.8401 3.70998C10.912 3.71003 10.9828 3.71009 11.0527 3.71015L11.846 3.71083C11.9084 3.71088 11.9699 3.71094 12.0305 3.711L12.5519 3.71152C12.6072 3.71158 12.6617 3.71163 12.7153 3.71169L13.3191 3.71239C13.3662 3.71245 13.4125 3.71251 13.458 3.71257L13.9678 3.71328C14.0073 3.71334 14.0461 3.7134 14.0842 3.71346L14.4082 3.714C14.4422 3.71406 14.4755 3.71412 14.5081 3.71418L14.869 3.71491C14.8966 3.71498 14.9236 3.71504 14.95 3.7151L15.1721 3.71565C15.1951 3.71572 15.2176 3.71578 15.2395 3.71584L15.4776 3.71659C15.4955 3.71665 15.5128 3.71672 15.5297 3.71678L15.6696 3.71735C15.6838 3.71741 15.6976 3.71748 15.7109 3.71754L15.8524 3.71831C15.8626 3.71838 15.8725 3.71844 15.8821 3.71851L15.9592 3.71909C15.9668 3.71916 15.9741 3.71922 15.9811 3.71929L16.0366 3.71988C16.042 3.71995 16.0471 3.72001 16.052 3.72008L16.0897 3.72068C16.0933 3.72074 16.0966 3.72081 16.0998 3.72088L16.1237 3.72148C16.1259 3.72155 16.1279 3.72162 16.1298 3.72168L16.1471 3.7225C16.1482 3.72257 16.1492 3.72264 16.1501 3.7227C16.1582 3.72346 16.1594 3.7236 16.1606 3.72374C16.6247 3.79124 17.0331 4.03374 17.3114 4.40707C17.5897 4.77957 17.7064 5.23874 17.6397 5.69874L16.8489 11.1637C16.6997 12.2037 15.7964 12.9879 14.7464 12.9879H5.64558C4.54808 12.9879 3.61891 12.1312 3.52974 11.0354L2.76641 1.95707L1.51058 1.74041C1.16974 1.68041 0.942243 1.35791 1.00058 1.01707C1.06058 0.676239 1.38974 0.454573 1.72308 0.507906ZM4.7291 4.95652L4.27308 4.95624L4.77558 10.9329C4.81224 11.3929 5.18808 11.7379 5.64724 11.7379H14.7447C15.1789 11.7379 15.5497 11.4146 15.6114 10.9854L16.4031 5.51957C16.4214 5.38957 16.3889 5.25957 16.3097 5.15457C16.2314 5.04874 16.1164 4.98041 15.9864 4.96207C15.9804 4.9623 15.966 4.96251 15.9436 4.9627L15.853 4.96322C15.834 4.9633 15.8132 4.96337 15.7905 4.96344L15.3184 4.96416C15.2786 4.96419 15.2372 4.96421 15.1942 4.96423L14.0842 4.96419C14.0223 4.96416 13.9592 4.96414 13.895 4.96411L12.6282 4.96334C12.5523 4.96328 12.4756 4.96323 12.3981 4.96317L11.6813 4.96259C11.5997 4.96253 11.5174 4.96246 11.4346 4.96239L10.6754 4.96172C10.5896 4.96164 10.5035 4.96156 10.4169 4.96148L9.89396 4.961C9.80621 4.96092 9.7182 4.96084 9.62999 4.96076L8.83191 4.96001C8.74292 4.95993 8.65388 4.95985 8.56483 4.95976L8.03096 4.95927C7.94212 4.95918 7.85337 4.9591 7.76478 4.95902L7.23544 4.95854C7.14765 4.95846 7.06012 4.95838 6.9729 4.95831L6.19747 4.95764C6.11254 4.95757 6.02806 4.9575 5.94409 4.95743L4.96415 4.95668C4.88507 4.95663 4.8067 4.95658 4.7291 4.95652ZM13.4063 6.78649C13.7513 6.78649 14.0313 7.06649 14.0313 7.41149C14.0313 7.75649 13.7513 8.03649 13.4063 8.03649H11.0963C10.7505 8.03649 10.4713 7.75649 10.4713 7.41149C10.4713 7.06649 10.7505 6.78649 11.0963 6.78649H13.4063Z" fill="#222222"/>
</svg>