<svg width="32" height="24" viewBox="0 0 32 24" fill="none" xmlns="http://www.w3.org/2000/svg">
<path d="M29.3334 0H9.33344C8.41344 0 7.69344 0.466667 7.21344 1.17333L0.493437 11.2667C0.200104 11.72 0.200104 12.2933 0.493437 12.7467L7.21344 22.8267C7.69344 23.52 8.41344 24 9.33344 24H29.3334C30.8001 24 32.0001 22.8 32.0001 21.3333V2.66667C32.0001 1.2 30.8001 0 29.3334 0ZM24.4001 17.7333C23.8801 18.2533 23.0401 18.2533 22.5201 17.7333L18.6668 13.88L14.8134 17.7333C14.2934 18.2533 13.4534 18.2533 12.9334 17.7333C12.4134 17.2133 12.4134 16.3733 12.9334 15.8533L16.7868 12L12.9334 8.14667C12.4134 7.62667 12.4134 6.78667 12.9334 6.26667C13.4534 5.74667 14.2934 5.74667 14.8134 6.26667L18.6668 10.12L22.5201 6.26667C23.0401 5.74667 23.8801 5.74667 24.4001 6.26667C24.9201 6.78667 24.9201 7.62667 24.4001 8.14667L20.5468 12L24.4001 15.8533C24.9068 16.36 24.9068 17.2133 24.4001 17.7333Z" fill="white"/>
</svg>
