<svg width="24" height="24" viewBox="0 0 24 24" fill="none" xmlns="http://www.w3.org/2000/svg">
<path d="M22.8676 8.27999C23.1601 17.0475 15.2026 21.3487 12.0001 21.3412C8.79761 21.3487 0.840108 17.0475 1.13261 8.27999C1.23761 2.78249 8.18411 0.687361 11.4125 4.90949C11.4818 4.99943 11.5708 5.07228 11.6727 5.1224C11.7745 5.17252 11.8866 5.19859 12.0001 5.19859C12.1136 5.19859 12.2257 5.17252 12.3276 5.1224C12.4294 5.07228 12.5184 4.99943 12.5877 4.90949C15.7186 0.815235 22.7626 2.49224 22.8676 8.27999Z" fill="#FC6886"/>
<path d="M5.05492 14.6812C4.71452 14.2269 4.41117 13.746 4.1478 13.2431C4.08185 13.1112 4.0703 12.9588 4.11564 12.8185C4.16098 12.6782 4.25957 12.5613 4.39021 12.493C4.52085 12.4247 4.67309 12.4104 4.81417 12.4532C4.95524 12.496 5.07388 12.5924 5.14455 12.7218C5.37964 13.1711 5.65064 13.6006 5.95492 14.0062C6.04443 14.1255 6.08287 14.2756 6.06177 14.4233C6.04067 14.5709 5.96177 14.7042 5.84242 14.7937C5.72307 14.8832 5.57306 14.9216 5.42537 14.9005C5.27769 14.8795 5.14443 14.8006 5.05492 14.6812Z" fill="white"/>
<path d="M6.80178 16.5202L6.62928 16.3702C6.57344 16.3218 6.52767 16.2629 6.49459 16.1969C6.46151 16.1308 6.44177 16.0589 6.4365 15.9852C6.42584 15.8363 6.47475 15.6893 6.57247 15.5765C6.67018 15.4638 6.8087 15.3944 6.95755 15.3838C7.03125 15.3785 7.10526 15.3878 7.17537 15.4111C7.24548 15.4344 7.31031 15.4713 7.36616 15.5197L7.53866 15.6697C7.5945 15.7181 7.64027 15.777 7.67335 15.8431C7.70642 15.9092 7.72616 15.9811 7.73144 16.0548C7.73672 16.1285 7.72742 16.2025 7.70409 16.2726C7.68076 16.3427 7.64385 16.4076 7.59547 16.4634C7.54708 16.5193 7.48817 16.565 7.4221 16.5981C7.35603 16.6312 7.28409 16.6509 7.21039 16.6562C7.13669 16.6615 7.06267 16.6522 6.99256 16.6289C6.92245 16.6055 6.85763 16.5686 6.80178 16.5202Z" fill="white"/>
<path d="M11.9682 21.3412C11.84 21.3353 11.7184 21.2827 11.6264 21.1933C11.5344 21.1038 11.4783 20.9838 11.4687 20.8558C11.4592 20.7279 11.4968 20.6009 11.5745 20.4988C11.6523 20.3967 11.7647 20.3266 11.8906 20.3017C16.7048 19.3702 21.5453 14.0883 21.3664 7.47333C21.3573 7.29257 21.4175 7.11512 21.5348 6.97732C21.6522 6.83951 21.8177 6.75176 21.9977 6.73202C22.1776 6.71228 22.3582 6.76204 22.5026 6.87113C22.6471 6.98021 22.7444 7.14037 22.7746 7.31883C22.8307 7.63627 22.8618 7.95763 22.8676 8.27995C23.1593 17.025 15.2307 21.3588 11.9682 21.3412Z" fill="#CF3752"/>
</svg>
