<svg width="18" height="17" viewBox="0 0 18 17" fill="none" xmlns="http://www.w3.org/2000/svg">
  <path fill-rule="evenodd" clip-rule="evenodd" d="M9.19563 1.36593C10.5506 0.509265 12.3506 0.272598 13.9056 0.770932C17.2881 1.86177 18.3381 5.54926 17.399 8.48343C15.9498 13.0918 9.76063 16.5293 9.49813 16.6734C9.4048 16.7251 9.30147 16.7509 9.19814 16.7509C9.0948 16.7509 8.9923 16.7259 8.89897 16.6751C8.63813 16.5326 2.49397 13.1459 0.996468 8.48427C0.995634 8.48427 0.995634 8.48343 0.995634 8.48343C0.0556344 5.54843 1.1023 1.8601 4.48147 0.770932C6.06813 0.257598 7.7973 0.483432 9.19563 1.36593ZM4.8648 1.96093C2.13063 2.8426 1.44397 5.78343 2.18647 8.1026C3.3548 11.7376 7.97063 14.6768 9.1973 15.4043C10.4281 14.6693 15.0773 11.6976 16.2081 8.10593C16.9506 5.78427 16.2615 2.84343 13.5231 1.96093C12.1965 1.5351 10.649 1.79427 9.58064 2.62093C9.3573 2.7926 9.0473 2.79593 8.8223 2.62593C7.69063 1.7751 6.2123 1.52593 4.8648 1.96093ZM12.7231 3.61585C13.859 3.98335 14.6548 4.98918 14.7523 6.17835C14.7798 6.52251 14.524 6.82418 14.1798 6.85168C14.1623 6.85335 14.1456 6.85418 14.1281 6.85418C13.8056 6.85418 13.5323 6.60668 13.5056 6.28002C13.4506 5.59502 12.9923 5.01668 12.3398 4.80585C12.0106 4.69918 11.8306 4.34668 11.9365 4.01918C12.044 3.69085 12.3931 3.51251 12.7231 3.61585Z" fill="#222222"/>
</svg>