<svg width="17" height="19" viewBox="0 0 17 19" fill="none" xmlns="http://www.w3.org/2000/svg">
  <path fill-rule="evenodd" clip-rule="evenodd" d="M7.02955 16.7549C7.46121 17.2358 8.01538 17.4999 8.59038 17.4999H8.59121C9.16871 17.4999 9.72538 17.2358 10.1579 16.7541C10.3895 16.4983 10.7845 16.4774 11.0404 16.7083C11.297 16.9391 11.3179 17.3349 11.087 17.5908C10.4137 18.3383 9.52788 18.7499 8.59121 18.7499H8.58955C7.65538 18.7491 6.77121 18.3374 6.10038 17.5899C5.86955 17.3341 5.89038 16.9383 6.14705 16.7083C6.40371 16.4766 6.79871 16.4974 7.02955 16.7549ZM8.63188 0.833252C12.336 0.833252 14.8244 3.71825 14.8244 6.41242C14.8244 7.79825 15.1769 8.38575 15.551 9.00908C15.921 9.62408 16.3402 10.3224 16.3402 11.6424C16.0494 15.0149 12.5285 15.2899 8.63188 15.2899C4.73521 15.2899 1.21355 15.0149 0.926036 11.6958C0.923548 10.3224 1.34271 9.62408 1.71271 9.00908L1.84333 8.78921C2.16494 8.23647 2.43938 7.63521 2.43938 6.41242C2.43938 3.71825 4.92771 0.833252 8.63188 0.833252ZM8.63188 2.08325C5.71938 2.08325 3.68938 4.36492 3.68938 6.41242C3.68938 8.14492 3.20855 8.94575 2.78355 9.65242C2.44271 10.2199 2.17355 10.6683 2.17355 11.6424C2.31271 13.2141 3.35021 14.0399 8.63188 14.0399C13.8844 14.0399 14.9544 13.1774 15.0927 11.5883C15.0902 10.6683 14.821 10.2199 14.4802 9.65242C14.0552 8.94575 13.5744 8.14492 13.5744 6.41242C13.5744 4.36492 11.5444 2.08325 8.63188 2.08325Z" fill="#222222"/>
</svg>