<svg width="17" height="18" viewBox="0 0 17 18" fill="none" xmlns="http://www.w3.org/2000/svg">
  <path fill-rule="evenodd" clip-rule="evenodd" d="M8.20824 0.666748C12.6832 0.666748 16.3232 4.30675 16.3232 8.78175C16.3232 10.893 15.513 12.8186 14.1871 14.2638L16.7961 16.8673C17.0402 17.1115 17.0411 17.5065 16.7969 17.7507C16.6752 17.874 16.5144 17.9348 16.3544 17.9348C16.1952 17.9348 16.0352 17.874 15.9127 17.7523L13.2723 15.1193C11.8833 16.2316 10.1221 16.8976 8.20824 16.8976C3.73324 16.8976 0.0924072 13.2567 0.0924072 8.78175C0.0924072 4.30675 3.73324 0.666748 8.20824 0.666748ZM8.20824 1.91675C4.42241 1.91675 1.34241 4.99591 1.34241 8.78175C1.34241 12.5676 4.42241 15.6476 8.20824 15.6476C11.9932 15.6476 15.0732 12.5676 15.0732 8.78175C15.0732 4.99591 11.9932 1.91675 8.20824 1.91675Z" fill="#222222"/>
</svg>