<svg width="13" height="33" viewBox="0 0 13 33" fill="none" xmlns="http://www.w3.org/2000/svg">
<path d="M4.43634 8.73702C4.23466 8.73702 4.0817 8.73702 3.92874 8.73702C2.98153 8.73702 2.03546 8.73354 1.08825 8.73818C0.648632 8.7405 0.270202 8.63374 0.0798534 8.18117C-0.0991647 7.75762 0.0424635 7.40368 0.309858 7.06368C1.57771 5.453 2.8365 3.8342 4.09869 2.21889C4.54851 1.64215 4.99265 1.06078 5.45039 0.491008C5.97499 -0.162314 6.55963 -0.164635 7.07175 0.489847C8.79622 2.69002 10.5128 4.89716 12.2372 7.09733C12.5069 7.44198 12.6281 7.79939 12.4276 8.21599C12.235 8.61633 11.8905 8.73818 11.4792 8.73702C10.5037 8.73354 9.52929 8.73702 8.55375 8.73702C8.40193 8.73702 8.2501 8.73702 8.06882 8.73702V9.30911C8.06882 16.5177 8.06882 23.7274 8.06882 30.936C8.06882 31.7982 7.57368 32.5061 6.81456 32.7498C6.0475 32.997 5.17847 32.7301 4.77964 32.0106C4.5689 31.63 4.45107 31.1403 4.44993 30.7005C4.43067 23.5777 4.43634 16.4562 4.43634 9.33348V8.73702Z" fill="#FF6B6B"/>
</svg>
