<svg width="13" height="33" viewBox="0 0 13 33" fill="none" xmlns="http://www.w3.org/2000/svg">
<path d="M4.92883 24.2593V23.6918C4.92883 16.4821 4.9277 9.2735 4.92996 2.06375C4.92996 0.758266 6.06639 -0.124821 7.26286 0.238393C7.9846 0.456554 8.50466 1.13889 8.55791 1.94422C8.56811 2.1032 8.56244 2.26218 8.56244 2.42232C8.56244 9.50094 8.56244 16.5807 8.56244 23.6593V24.2604C8.76072 24.2604 8.91255 24.2604 9.06551 24.2604C10.0127 24.2604 10.9588 24.2639 11.906 24.2593C12.3445 24.257 12.724 24.3591 12.9167 24.8128C13.0957 25.2352 12.9597 25.5915 12.6912 25.9315C11.7678 27.1012 10.8523 28.279 9.93454 29.4545C9.16635 30.4374 8.40042 31.4226 7.63223 32.4043C7.0136 33.1934 6.46748 33.1981 5.84771 32.4055C4.15044 30.2378 2.4611 28.0655 0.762695 25.899C0.493035 25.5543 0.366136 25.1992 0.567815 24.7815C0.760429 24.3811 1.1026 24.2558 1.51502 24.2581C2.49056 24.2616 3.46496 24.2581 4.4405 24.2581C4.59232 24.2581 4.74415 24.2581 4.92996 24.2581L4.92883 24.2593Z" fill="white"/>
</svg>
