<svg width="56" height="56" viewBox="0 0 56 56" fill="none" xmlns="http://www.w3.org/2000/svg">
<rect width="55.2135" height="55.2135" rx="27.6067" fill="#FF6B6B"/>
<path d="M18.1055 19.752V34H15.293V22.9941L11.9141 24.0684V21.8516L17.8027 19.752H18.1055ZM32.4609 31.8027V34H22.7344V32.125L27.334 27.1934C27.7962 26.679 28.1608 26.2266 28.4277 25.8359C28.6947 25.4388 28.8867 25.084 29.0039 24.7715C29.1276 24.4525 29.1895 24.1497 29.1895 23.8633C29.1895 23.4336 29.1178 23.0658 28.9746 22.7598C28.8314 22.4473 28.6198 22.2064 28.3398 22.0371C28.0664 21.8678 27.7279 21.7832 27.3242 21.7832C26.8945 21.7832 26.5234 21.8874 26.2109 22.0957C25.9049 22.304 25.6706 22.5938 25.5078 22.9648C25.3516 23.3359 25.2734 23.7559 25.2734 24.2246H22.4512C22.4512 23.3783 22.653 22.6035 23.0566 21.9004C23.4603 21.1908 24.0299 20.6276 24.7656 20.2109C25.5013 19.7878 26.3737 19.5762 27.3828 19.5762C28.3789 19.5762 29.2188 19.7389 29.9023 20.0645C30.5924 20.3835 31.1133 20.8457 31.4648 21.4512C31.8229 22.0501 32.002 22.7663 32.002 23.5996C32.002 24.0684 31.9271 24.5273 31.7773 24.9766C31.6276 25.4193 31.4128 25.862 31.1328 26.3047C30.8594 26.7409 30.5273 27.1836 30.1367 27.6328C29.7461 28.082 29.3132 28.5475 28.8379 29.0293L26.3672 31.8027H32.4609ZM37.0996 25.6699H38.6035C39.0853 25.6699 39.4824 25.5885 39.7949 25.4258C40.1074 25.2565 40.3385 25.0221 40.4883 24.7227C40.6445 24.4167 40.7227 24.0618 40.7227 23.6582C40.7227 23.2936 40.651 22.9714 40.5078 22.6914C40.3711 22.4049 40.1595 22.1836 39.873 22.0273C39.5866 21.8646 39.2253 21.7832 38.7891 21.7832C38.444 21.7832 38.125 21.8516 37.832 21.9883C37.5391 22.125 37.3047 22.3171 37.1289 22.5645C36.9531 22.8118 36.8652 23.1113 36.8652 23.4629H34.043C34.043 22.6816 34.2513 22.0013 34.668 21.4219C35.0911 20.8424 35.6576 20.39 36.3672 20.0645C37.0768 19.7389 37.8581 19.5762 38.7109 19.5762C39.6745 19.5762 40.5176 19.7324 41.2402 20.0449C41.9629 20.3509 42.526 20.8034 42.9297 21.4023C43.3333 22.0013 43.5352 22.7435 43.5352 23.6289C43.5352 24.0781 43.431 24.5143 43.2227 24.9375C43.0143 25.3542 42.7148 25.7318 42.3242 26.0703C41.9401 26.4023 41.4714 26.6693 40.918 26.8711C40.3646 27.0664 39.7428 27.1641 39.0527 27.1641H37.0996V25.6699ZM37.0996 27.8086V26.3535H39.0527C39.8275 26.3535 40.5078 26.4414 41.0938 26.6172C41.6797 26.793 42.1712 27.0469 42.5684 27.3789C42.9655 27.7044 43.265 28.0918 43.4668 28.541C43.6686 28.9837 43.7695 29.4753 43.7695 30.0156C43.7695 30.6797 43.6426 31.2721 43.3887 31.793C43.1348 32.3073 42.7767 32.7435 42.3145 33.1016C41.8587 33.4596 41.3249 33.7331 40.7129 33.9219C40.1009 34.1042 39.4336 34.1953 38.7109 34.1953C38.112 34.1953 37.5228 34.1139 36.9434 33.9512C36.3704 33.7819 35.8496 33.5312 35.3809 33.1992C34.9186 32.8607 34.5475 32.4375 34.2676 31.9297C33.9941 31.4154 33.8574 30.8066 33.8574 30.1035H36.6797C36.6797 30.4681 36.7708 30.7936 36.9531 31.0801C37.1354 31.3665 37.3861 31.5911 37.7051 31.7539C38.0306 31.9167 38.3919 31.998 38.7891 31.998C39.2383 31.998 39.6224 31.9167 39.9414 31.7539C40.2669 31.5846 40.5143 31.3503 40.6836 31.0508C40.8594 30.7448 40.9473 30.39 40.9473 29.9863C40.9473 29.4655 40.8529 29.0488 40.6641 28.7363C40.4753 28.4173 40.2051 28.1829 39.8535 28.0332C39.502 27.8835 39.0853 27.8086 38.6035 27.8086H37.0996Z" fill="white"/>
</svg>
